<mxfile host="65bd71144e">
    <diagram id="U5O1sheMpgnh9gDCX9Kw" name="Page-3">
        <mxGraphModel dx="955" dy="885" grid="1" gridSize="10" guides="1" tooltips="1" connect="1" arrows="1" fold="1" page="1" pageScale="1" pageWidth="827" pageHeight="1169" math="0" shadow="0">
            <root>
                <mxCell id="0"/>
                <mxCell id="1" parent="0"/>
                <mxCell id="Wd5XBtQZBHqo39rldjlK-3" value="" style="rounded=0;whiteSpace=wrap;html=1;fillColor=#ffe6cc;strokeColor=#FF8000;" parent="1" vertex="1">
                    <mxGeometry x="350" width="580" height="760" as="geometry"/>
                </mxCell>
                <mxCell id="Wd5XBtQZBHqo39rldjlK-18" style="edgeStyle=none;rounded=0;orthogonalLoop=1;jettySize=auto;html=1;entryX=0;entryY=0.5;entryDx=0;entryDy=0;strokeColor=#0000CC;exitX=0.5;exitY=0.5;exitDx=0;exitDy=0;exitPerimeter=0;" parent="1" source="Wd5XBtQZBHqo39rldjlK-9" target="-_fNTmg2Q0QrO5CFdmNo-1" edge="1">
                    <mxGeometry relative="1" as="geometry"/>
                </mxCell>
                <mxCell id="Wd5XBtQZBHqo39rldjlK-9" value="Khách hàng" style="shape=umlActor;verticalLabelPosition=bottom;verticalAlign=top;html=1;outlineConnect=0;" parent="1" vertex="1">
                    <mxGeometry x="150" y="230" width="30" height="60" as="geometry"/>
                </mxCell>
                <mxCell id="Wd5XBtQZBHqo39rldjlK-11" value="phân loại" style="ellipse;whiteSpace=wrap;html=1;strokeColor=#FF8000;" parent="1" vertex="1">
                    <mxGeometry x="665" y="62" width="90" height="58" as="geometry"/>
                </mxCell>
                <mxCell id="Wd5XBtQZBHqo39rldjlK-13" value="In danh sách" style="ellipse;whiteSpace=wrap;html=1;strokeColor=#FF8000;" parent="1" vertex="1">
                    <mxGeometry x="660" y="139" width="100" height="50" as="geometry"/>
                </mxCell>
                <mxCell id="-_fNTmg2Q0QrO5CFdmNo-23" style="edgeStyle=none;rounded=0;orthogonalLoop=1;jettySize=auto;html=1;entryX=1;entryY=0.5;entryDx=0;entryDy=0;startArrow=none;startFill=0;endArrow=classic;endFill=0;strokeColor=#0000CC;exitX=0.5;exitY=0.5;exitDx=0;exitDy=0;exitPerimeter=0;" parent="1" source="Wd5XBtQZBHqo39rldjlK-14" target="Wd5XBtQZBHqo39rldjlK-11" edge="1">
                    <mxGeometry relative="1" as="geometry"/>
                </mxCell>
                <mxCell id="Wd5XBtQZBHqo39rldjlK-14" value="Quản lý" style="shape=umlActor;verticalLabelPosition=bottom;verticalAlign=top;html=1;outlineConnect=0;" parent="1" vertex="1">
                    <mxGeometry x="980" y="215" width="30" height="60" as="geometry"/>
                </mxCell>
                <mxCell id="-_fNTmg2Q0QrO5CFdmNo-1" value="Mượn đĩa" style="ellipse;whiteSpace=wrap;html=1;strokeColor=#FF8000;" parent="1" vertex="1">
                    <mxGeometry x="380" y="180" width="100" height="47" as="geometry"/>
                </mxCell>
                <mxCell id="LeXju_57c9P_A_IAp_PP-2" value="Hệ thống quản lý cửa hàng video" style="rounded=0;whiteSpace=wrap;html=1;fontSize=12;fillColor=#ffe6cc;strokeColor=#FF8000;" parent="1" vertex="1">
                    <mxGeometry x="525" y="5" width="230" height="30" as="geometry"/>
                </mxCell>
                <mxCell id="JzPDqgwUGFMr0QwhM7IS-3" value="&amp;lt;&amp;lt;include&amp;gt;&amp;gt;" style="html=1;verticalAlign=bottom;labelBackgroundColor=none;endArrow=open;endFill=0;dashed=1;rounded=0;entryX=0.5;entryY=0;entryDx=0;entryDy=0;exitX=0.5;exitY=1;exitDx=0;exitDy=0;" parent="1" source="JzPDqgwUGFMr0QwhM7IS-4" target="-_fNTmg2Q0QrO5CFdmNo-1" edge="1">
                    <mxGeometry width="160" relative="1" as="geometry">
                        <mxPoint x="390" y="120" as="sourcePoint"/>
                        <mxPoint x="560" y="110" as="targetPoint"/>
                    </mxGeometry>
                </mxCell>
                <mxCell id="JzPDqgwUGFMr0QwhM7IS-4" value="thẻ thành viên" style="ellipse;whiteSpace=wrap;html=1;" parent="1" vertex="1">
                    <mxGeometry x="385" y="80" width="90" height="59" as="geometry"/>
                </mxCell>
                <mxCell id="JzPDqgwUGFMr0QwhM7IS-5" value="" style="ellipse;whiteSpace=wrap;html=1;" parent="1" vertex="1">
                    <mxGeometry x="520" y="190" width="135" height="100" as="geometry"/>
                </mxCell>
                <mxCell id="JzPDqgwUGFMr0QwhM7IS-6" value="kiểm tra thời hạn" style="text;html=1;strokeColor=none;fillColor=none;align=center;verticalAlign=middle;whiteSpace=wrap;rounded=0;" parent="1" vertex="1">
                    <mxGeometry x="557.5" y="200" width="60" height="30" as="geometry"/>
                </mxCell>
                <mxCell id="JzPDqgwUGFMr0QwhM7IS-7" value="" style="endArrow=none;html=1;rounded=0;exitX=0;exitY=0.5;exitDx=0;exitDy=0;entryX=1;entryY=0.5;entryDx=0;entryDy=0;" parent="1" source="JzPDqgwUGFMr0QwhM7IS-5" target="JzPDqgwUGFMr0QwhM7IS-5" edge="1">
                    <mxGeometry width="50" height="50" relative="1" as="geometry">
                        <mxPoint x="670" y="300" as="sourcePoint"/>
                        <mxPoint x="720" y="250" as="targetPoint"/>
                    </mxGeometry>
                </mxCell>
                <mxCell id="JzPDqgwUGFMr0QwhM7IS-8" value="quá hạn cho mượn" style="text;html=1;strokeColor=none;fillColor=none;align=center;verticalAlign=middle;whiteSpace=wrap;rounded=0;" parent="1" vertex="1">
                    <mxGeometry x="557.5" y="245" width="60" height="30" as="geometry"/>
                </mxCell>
                <mxCell id="JzPDqgwUGFMr0QwhM7IS-11" style="edgeStyle=none;rounded=0;orthogonalLoop=1;jettySize=auto;html=1;entryX=1;entryY=0.5;entryDx=0;entryDy=0;startArrow=none;startFill=0;endArrow=classic;endFill=0;strokeColor=#0000CC;exitX=0.5;exitY=0.5;exitDx=0;exitDy=0;exitPerimeter=0;" parent="1" source="Wd5XBtQZBHqo39rldjlK-14" target="JzPDqgwUGFMr0QwhM7IS-5" edge="1">
                    <mxGeometry relative="1" as="geometry">
                        <mxPoint x="940" y="423.04255319148933" as="sourcePoint"/>
                        <mxPoint x="720" y="277" as="targetPoint"/>
                    </mxGeometry>
                </mxCell>
                <mxCell id="JzPDqgwUGFMr0QwhM7IS-13" value="&amp;lt;&amp;lt;extend&amp;gt;&amp;gt;" style="html=1;verticalAlign=bottom;labelBackgroundColor=none;endArrow=open;endFill=0;dashed=1;rounded=0;entryX=0.5;entryY=1;entryDx=0;entryDy=0;exitX=0.5;exitY=0;exitDx=0;exitDy=0;" parent="1" source="JzPDqgwUGFMr0QwhM7IS-14" target="JzPDqgwUGFMr0QwhM7IS-5" edge="1">
                    <mxGeometry width="160" relative="1" as="geometry">
                        <mxPoint x="550" y="350" as="sourcePoint"/>
                        <mxPoint x="710" y="350" as="targetPoint"/>
                    </mxGeometry>
                </mxCell>
                <mxCell id="JzPDqgwUGFMr0QwhM7IS-14" value="đóng phí phạt" style="ellipse;whiteSpace=wrap;html=1;" parent="1" vertex="1">
                    <mxGeometry x="536.25" y="350" width="102.5" height="60" as="geometry"/>
                </mxCell>
                <mxCell id="JzPDqgwUGFMr0QwhM7IS-16" style="edgeStyle=none;rounded=0;orthogonalLoop=1;jettySize=auto;html=1;entryX=0;entryY=0.5;entryDx=0;entryDy=0;strokeColor=#0000CC;exitX=0.5;exitY=0.5;exitDx=0;exitDy=0;exitPerimeter=0;" parent="1" source="Wd5XBtQZBHqo39rldjlK-9" target="JzPDqgwUGFMr0QwhM7IS-14" edge="1">
                    <mxGeometry relative="1" as="geometry">
                        <mxPoint x="195" y="84.17857142857144" as="sourcePoint"/>
                        <mxPoint x="390" y="203.5" as="targetPoint"/>
                    </mxGeometry>
                </mxCell>
                <mxCell id="JzPDqgwUGFMr0QwhM7IS-21" value="&amp;lt;&amp;lt;include&amp;gt;&amp;gt;" style="html=1;verticalAlign=bottom;labelBackgroundColor=none;endArrow=open;endFill=0;dashed=1;rounded=0;exitX=1;exitY=0.5;exitDx=0;exitDy=0;entryX=0;entryY=0;entryDx=0;entryDy=0;" parent="1" source="-_fNTmg2Q0QrO5CFdmNo-1" target="JzPDqgwUGFMr0QwhM7IS-5" edge="1">
                    <mxGeometry width="160" relative="1" as="geometry">
                        <mxPoint x="390" y="260" as="sourcePoint"/>
                        <mxPoint x="550" y="260" as="targetPoint"/>
                    </mxGeometry>
                </mxCell>
                <mxCell id="JzPDqgwUGFMr0QwhM7IS-23" value="&amp;lt;&amp;lt;extend&amp;gt;&amp;gt;" style="html=1;verticalAlign=bottom;labelBackgroundColor=none;endArrow=open;endFill=0;dashed=1;rounded=0;entryX=0.5;entryY=1;entryDx=0;entryDy=0;exitX=1;exitY=1;exitDx=0;exitDy=0;" parent="1" source="JzPDqgwUGFMr0QwhM7IS-5" target="Wd5XBtQZBHqo39rldjlK-13" edge="1">
                    <mxGeometry width="160" relative="1" as="geometry">
                        <mxPoint x="640" y="290" as="sourcePoint"/>
                        <mxPoint x="800" y="290" as="targetPoint"/>
                        <Array as="points">
                            <mxPoint x="710" y="275"/>
                        </Array>
                    </mxGeometry>
                </mxCell>
                <mxCell id="JzPDqgwUGFMr0QwhM7IS-25" value="" style="ellipse;whiteSpace=wrap;html=1;strokeColor=#FF8000;" parent="1" vertex="1">
                    <mxGeometry x="700" y="410" width="180" height="140" as="geometry"/>
                </mxCell>
                <mxCell id="JzPDqgwUGFMr0QwhM7IS-26" value="trả đĩa" style="ellipse;whiteSpace=wrap;html=1;strokeColor=#FF8000;" parent="1" vertex="1">
                    <mxGeometry x="385" y="456.5" width="100" height="47" as="geometry"/>
                </mxCell>
                <mxCell id="JzPDqgwUGFMr0QwhM7IS-27" value="&amp;lt;&amp;lt;include&amp;gt;&amp;gt;" style="html=1;verticalAlign=bottom;labelBackgroundColor=none;endArrow=open;endFill=0;dashed=1;rounded=0;entryX=0;entryY=0.5;entryDx=0;entryDy=0;exitX=1;exitY=0.5;exitDx=0;exitDy=0;" parent="1" source="JzPDqgwUGFMr0QwhM7IS-26" target="JzPDqgwUGFMr0QwhM7IS-25" edge="1">
                    <mxGeometry x="-0.3953" y="10" width="160" relative="1" as="geometry">
                        <mxPoint x="420" y="473" as="sourcePoint"/>
                        <mxPoint x="580" y="473" as="targetPoint"/>
                        <mxPoint as="offset"/>
                    </mxGeometry>
                </mxCell>
                <mxCell id="JzPDqgwUGFMr0QwhM7IS-32" style="edgeStyle=none;rounded=0;orthogonalLoop=1;jettySize=auto;html=1;entryX=1;entryY=0.5;entryDx=0;entryDy=0;startArrow=none;startFill=0;endArrow=classic;endFill=0;strokeColor=#0000CC;exitX=0.5;exitY=0.5;exitDx=0;exitDy=0;exitPerimeter=0;" parent="1" source="Wd5XBtQZBHqo39rldjlK-14" target="Wd5XBtQZBHqo39rldjlK-13" edge="1">
                    <mxGeometry relative="1" as="geometry">
                        <mxPoint x="985" y="257" as="sourcePoint"/>
                        <mxPoint x="665" y="250" as="targetPoint"/>
                    </mxGeometry>
                </mxCell>
                <mxCell id="JzPDqgwUGFMr0QwhM7IS-33" style="edgeStyle=none;rounded=0;orthogonalLoop=1;jettySize=auto;html=1;entryX=1;entryY=0.5;entryDx=0;entryDy=0;startArrow=none;startFill=0;endArrow=classic;endFill=0;strokeColor=#0000CC;exitX=0.5;exitY=0.5;exitDx=0;exitDy=0;exitPerimeter=0;" parent="1" source="Wd5XBtQZBHqo39rldjlK-14" target="JzPDqgwUGFMr0QwhM7IS-25" edge="1">
                    <mxGeometry relative="1" as="geometry">
                        <mxPoint x="995" y="267" as="sourcePoint"/>
                        <mxPoint x="675" y="260" as="targetPoint"/>
                    </mxGeometry>
                </mxCell>
                <mxCell id="JzPDqgwUGFMr0QwhM7IS-34" style="edgeStyle=none;rounded=0;orthogonalLoop=1;jettySize=auto;html=1;entryX=0;entryY=0.5;entryDx=0;entryDy=0;startArrow=none;startFill=0;endArrow=classic;endFill=0;strokeColor=#0000CC;exitX=0.5;exitY=0.5;exitDx=0;exitDy=0;exitPerimeter=0;" parent="1" source="Wd5XBtQZBHqo39rldjlK-9" target="JzPDqgwUGFMr0QwhM7IS-26" edge="1">
                    <mxGeometry relative="1" as="geometry">
                        <mxPoint x="1005" y="277" as="sourcePoint"/>
                        <mxPoint x="685" y="270" as="targetPoint"/>
                    </mxGeometry>
                </mxCell>
                <mxCell id="JzPDqgwUGFMr0QwhM7IS-36" value="" style="endArrow=none;html=1;rounded=0;exitX=0;exitY=0.5;exitDx=0;exitDy=0;" parent="1" source="JzPDqgwUGFMr0QwhM7IS-25" edge="1">
                    <mxGeometry width="50" height="50" relative="1" as="geometry">
                        <mxPoint x="890" y="520" as="sourcePoint"/>
                        <mxPoint x="880" y="480" as="targetPoint"/>
                    </mxGeometry>
                </mxCell>
                <mxCell id="JzPDqgwUGFMr0QwhM7IS-37" value="kiểm tra chất lượng" style="text;html=1;strokeColor=none;fillColor=none;align=center;verticalAlign=middle;whiteSpace=wrap;rounded=0;" parent="1" vertex="1">
                    <mxGeometry x="760" y="440" width="60" height="30" as="geometry"/>
                </mxCell>
                <mxCell id="JzPDqgwUGFMr0QwhM7IS-38" value="đĩa lỗi" style="text;html=1;strokeColor=none;fillColor=none;align=center;verticalAlign=middle;whiteSpace=wrap;rounded=0;" parent="1" vertex="1">
                    <mxGeometry x="760" y="490" width="60" height="30" as="geometry"/>
                </mxCell>
                <mxCell id="JzPDqgwUGFMr0QwhM7IS-40" value="đĩa lỗi do khách hàng" style="ellipse;whiteSpace=wrap;html=1;strokeColor=#FF8000;" parent="1" vertex="1">
                    <mxGeometry x="665" y="585" width="100" height="47" as="geometry"/>
                </mxCell>
                <mxCell id="JzPDqgwUGFMr0QwhM7IS-42" value="đĩa đã lỗi sẵn" style="ellipse;whiteSpace=wrap;html=1;strokeColor=#FF8000;" parent="1" vertex="1">
                    <mxGeometry x="780" y="585" width="100" height="47" as="geometry"/>
                </mxCell>
                <mxCell id="JzPDqgwUGFMr0QwhM7IS-43" value="" style="endArrow=classic;html=1;rounded=0;exitX=0.5;exitY=0;exitDx=0;exitDy=0;entryX=0.278;entryY=0.969;entryDx=0;entryDy=0;entryPerimeter=0;" parent="1" source="JzPDqgwUGFMr0QwhM7IS-40" target="JzPDqgwUGFMr0QwhM7IS-25" edge="1">
                    <mxGeometry width="50" height="50" relative="1" as="geometry">
                        <mxPoint x="660" y="580" as="sourcePoint"/>
                        <mxPoint x="700" y="530" as="targetPoint"/>
                    </mxGeometry>
                </mxCell>
                <mxCell id="JzPDqgwUGFMr0QwhM7IS-44" value="" style="endArrow=classic;html=1;rounded=0;exitX=0.5;exitY=0;exitDx=0;exitDy=0;entryX=0.673;entryY=0.997;entryDx=0;entryDy=0;entryPerimeter=0;" parent="1" source="JzPDqgwUGFMr0QwhM7IS-42" target="JzPDqgwUGFMr0QwhM7IS-25" edge="1">
                    <mxGeometry width="50" height="50" relative="1" as="geometry">
                        <mxPoint x="639" y="570" as="sourcePoint"/>
                        <mxPoint x="748" y="541" as="targetPoint"/>
                    </mxGeometry>
                </mxCell>
                <mxCell id="JzPDqgwUGFMr0QwhM7IS-45" value="&amp;lt;&amp;lt;extend&amp;gt;&amp;gt;" style="html=1;verticalAlign=bottom;labelBackgroundColor=none;endArrow=open;endFill=0;dashed=1;rounded=0;exitX=0.5;exitY=1;exitDx=0;exitDy=0;" parent="1" source="JzPDqgwUGFMr0QwhM7IS-14" target="JzPDqgwUGFMr0QwhM7IS-40" edge="1">
                    <mxGeometry width="160" relative="1" as="geometry">
                        <mxPoint x="470" y="570" as="sourcePoint"/>
                        <mxPoint x="630" y="570" as="targetPoint"/>
                        <Array as="points">
                            <mxPoint x="588" y="610"/>
                        </Array>
                    </mxGeometry>
                </mxCell>
                <mxCell id="JzPDqgwUGFMr0QwhM7IS-47" value="loại bỏ đĩa" style="ellipse;whiteSpace=wrap;html=1;strokeColor=#FF8000;" parent="1" vertex="1">
                    <mxGeometry x="790" y="700" width="100" height="47" as="geometry"/>
                </mxCell>
                <mxCell id="JzPDqgwUGFMr0QwhM7IS-48" style="edgeStyle=none;rounded=0;orthogonalLoop=1;jettySize=auto;html=1;entryX=1;entryY=0.5;entryDx=0;entryDy=0;startArrow=none;startFill=0;endArrow=classic;endFill=0;strokeColor=#0000CC;exitX=0.5;exitY=0.5;exitDx=0;exitDy=0;exitPerimeter=0;" parent="1" source="Wd5XBtQZBHqo39rldjlK-14" target="JzPDqgwUGFMr0QwhM7IS-47" edge="1">
                    <mxGeometry relative="1" as="geometry">
                        <mxPoint x="985" y="257" as="sourcePoint"/>
                        <mxPoint x="890" y="490" as="targetPoint"/>
                    </mxGeometry>
                </mxCell>
                <mxCell id="JzPDqgwUGFMr0QwhM7IS-49" value="&amp;lt;&amp;lt;extend&amp;gt;&amp;gt;" style="html=1;verticalAlign=bottom;labelBackgroundColor=none;endArrow=open;endFill=0;dashed=1;rounded=0;entryX=0.588;entryY=0.983;entryDx=0;entryDy=0;exitX=0.5;exitY=0;exitDx=0;exitDy=0;entryPerimeter=0;" parent="1" source="JzPDqgwUGFMr0QwhM7IS-47" target="JzPDqgwUGFMr0QwhM7IS-42" edge="1">
                    <mxGeometry width="160" relative="1" as="geometry">
                        <mxPoint x="728" y="749.7" as="sourcePoint"/>
                        <mxPoint x="665.2375" y="550" as="targetPoint"/>
                        <Array as="points"/>
                    </mxGeometry>
                </mxCell>
                <mxCell id="2" value="&lt;p style=&quot;margin: 0px ; margin-top: 4px ; text-align: center&quot;&gt;&lt;br&gt;&lt;b&gt;quản lý&lt;/b&gt;&lt;/p&gt;" style="verticalAlign=top;align=left;overflow=fill;fontSize=12;fontFamily=Helvetica;html=1;" parent="1" vertex="1">
                    <mxGeometry x="50" y="890" width="140" height="60" as="geometry"/>
                </mxCell>
                <mxCell id="3" value="&lt;p style=&quot;margin: 0px ; margin-top: 4px ; text-align: center&quot;&gt;&lt;br&gt;&lt;b&gt;khách hàng&lt;/b&gt;&lt;/p&gt;" style="verticalAlign=top;align=left;overflow=fill;fontSize=12;fontFamily=Helvetica;html=1;" parent="1" vertex="1">
                    <mxGeometry x="350" y="890" width="140" height="60" as="geometry"/>
                </mxCell>
                <mxCell id="4" value="&lt;p style=&quot;margin: 0px ; margin-top: 4px ; text-align: center&quot;&gt;&lt;b&gt;hệ thống&lt;/b&gt;&lt;/p&gt;&lt;hr size=&quot;1&quot;&gt;&lt;div style=&quot;height: 2px&quot;&gt;&lt;/div&gt;" style="verticalAlign=top;align=left;overflow=fill;fontSize=12;fontFamily=Helvetica;html=1;" parent="1" vertex="1">
                    <mxGeometry x="220" y="1070" width="140" height="60" as="geometry"/>
                </mxCell>
                <mxCell id="5" value="" style="endArrow=open;endFill=1;endSize=12;html=1;exitX=1;exitY=0.5;exitDx=0;exitDy=0;entryX=0;entryY=0.5;entryDx=0;entryDy=0;" parent="1" source="2" target="3" edge="1">
                    <mxGeometry width="160" relative="1" as="geometry">
                        <mxPoint x="270" y="880" as="sourcePoint"/>
                        <mxPoint x="430" y="880" as="targetPoint"/>
                    </mxGeometry>
                </mxCell>
                <mxCell id="6" value="" style="endArrow=diamondThin;endFill=0;endSize=24;html=1;entryX=1;entryY=0.5;entryDx=0;entryDy=0;exitX=0.5;exitY=1;exitDx=0;exitDy=0;" parent="1" source="3" target="4" edge="1">
                    <mxGeometry width="160" relative="1" as="geometry">
                        <mxPoint x="410" y="1020" as="sourcePoint"/>
                        <mxPoint x="570" y="1020" as="targetPoint"/>
                    </mxGeometry>
                </mxCell>
                <mxCell id="7" value="" style="endArrow=open;endFill=1;endSize=12;html=1;exitX=0;exitY=0.5;exitDx=0;exitDy=0;entryX=0.5;entryY=1;entryDx=0;entryDy=0;" parent="1" source="4" target="2" edge="1">
                    <mxGeometry width="160" relative="1" as="geometry">
                        <mxPoint x="90" y="1000" as="sourcePoint"/>
                        <mxPoint x="60" y="990" as="targetPoint"/>
                    </mxGeometry>
                </mxCell>
                <mxCell id="8" value="association" style="text;html=1;align=center;verticalAlign=middle;resizable=0;points=[];autosize=1;strokeColor=none;fillColor=none;" parent="1" vertex="1">
                    <mxGeometry x="220" y="890" width="80" height="20" as="geometry"/>
                </mxCell>
                <mxCell id="9" value="association" style="text;html=1;align=center;verticalAlign=middle;resizable=0;points=[];autosize=1;strokeColor=none;fillColor=none;" parent="1" vertex="1">
                    <mxGeometry x="110" y="1030" width="80" height="20" as="geometry"/>
                </mxCell>
                <mxCell id="10" value="aggregation" style="text;html=1;align=center;verticalAlign=middle;resizable=0;points=[];autosize=1;strokeColor=none;fillColor=none;" parent="1" vertex="1">
                    <mxGeometry x="380" y="1000" width="80" height="20" as="geometry"/>
                </mxCell>
            </root>
        </mxGraphModel>
    </diagram>
</mxfile>